<?xml version="1.0" standalone="no"?>
<!DOCTYPE svg PUBLIC "-//W3C//DTD SVG 20010904//EN"
 "http://www.w3.org/TR/2001/REC-SVG-20010904/DTD/svg10.dtd">
<svg version="1.0" xmlns="http://www.w3.org/2000/svg"
 width="1024.000000pt" height="1024.000000pt" viewBox="0 0 1024.000000 1024.000000"
 preserveAspectRatio="xMidYMid meet">

<g transform="translate(0.000000,1024.000000) scale(0.100000,-0.100000)"
fill="#00a3e4" stroke="none">
<path d="M4866 7580 c-445 -51 -895 -223 -1261 -484 -181 -129 -373 -309 -498
-466 -175 -219 -351 -527 -427 -745 -147 -423 -179 -906 -91 -1363 162 -834
720 -1531 1495 -1866 333 -145 652 -209 1031 -210 614 0 1168 197 1661 592
108 86 274 253 371 373 252 311 428 701 513 1139 141 722 -16 1402 -460 1995
-404 539 -1023 912 -1697 1021 -115 19 -515 27 -637 14z m1784 -1327 c0 -3
-759 -755 -1261 -1250 -141 -139 -261 -253 -266 -253 -6 0 -234 219 -507 488
-273 268 -617 603 -764 746 -147 142 -268 261 -269 265 -2 3 688 6 1532 6 844
0 1535 -1 1535 -2z m-2887 -670 c144 -141 358 -352 475 -468 l214 -210 -477
-473 c-262 -260 -479 -471 -483 -468 -10 10 -10 1876 0 1876 5 0 127 -116 271
-257z m2996 -903 c0 -300 -2 -584 -6 -632 l-6 -88 -206 198 c-113 108 -305
294 -426 413 -121 118 -247 240 -279 271 l-59 55 249 244 c334 327 564 551
649 631 l70 67 6 -307 c4 -169 7 -552 8 -852z m-1752 -303 l112 -110 118 111
c65 61 156 149 203 196 l84 86 86 -82 c236 -227 910 -891 910 -897 0 -9 -2617
-11 -2727 -2 l-78 6 415 406 c228 223 453 442 500 487 l85 81 90 -87 c50 -47
141 -135 202 -195z"/>
</g>
</svg>
